<svg xmlns="http://www.w3.org/2000/svg" enable-background="new 0 0 800 800" viewBox="0 0 800 800"><path fill="#89c05c" d="m506.321 324.334-38.242 106.188c-1.415 3.928.618 8.292 4.57 9.715l176.186 63.451c3.952 1.423 8.3-.642 9.715-4.57l38.242-106.188a7.582 7.582 0 0 0-4.57-9.715l-176.186-63.451a7.581 7.581 0 0 0-9.715 4.57z"/><path fill="#f7d634" d="M507.856 341.187h37.143v37.143h-37.143z" transform="rotate(19.805 526.478 359.799)"/><path fill="#f9df7d" d="M471.679 426.331h202.447v23.733H471.679z" transform="rotate(19.805 572.957 438.246)"/><path d="M479.353 442.65l-6.706-2.415c-3.951-1.423-5.985-5.781-4.569-9.712l38.243-106.189a7.58 7.58 0 019.712-4.569l6.706 2.415a7.583 7.583 0 00-9.722 4.565l-38.243 106.189a7.597 7.597 0 004.579 9.716zM696.792 392.929L658.55 499.118c-1.416 3.931-5.762 5.992-9.712 4.569l-6.696-2.412c3.951 1.423 8.296-.638 9.712-4.569l38.243-106.189a7.58 7.58 0 00-4.569-9.712l6.696 2.412a7.58 7.58 0 014.568 9.712z" opacity=".15"/><g><path fill="#f15f5b" d="m452.098 319.772 58.211 96.695c2.153 3.577 6.821 4.755 10.42 2.589l160.435-96.583c3.599-2.167 4.742-6.842 2.589-10.42l-58.211-96.695a7.583 7.583 0 0 0-10.42-2.589l-160.435 96.583a7.58 7.58 0 0 0-2.589 10.42z"/><circle cx="611.996" cy="251.846" r="16.33" fill="#a8d271"/><circle cx="594.099" cy="262.62" r="16.33" fill="#f7d634"/><path fill="#f7d634" d="M473.692 307.971h37.143v37.143h-37.143z" transform="rotate(-31.052 492.205 326.533)"/><path fill="#394750" d="M481.212 328.151h202.447v23.733H481.212z" transform="rotate(-31.052 582.369 340.01)"/><path d="M526.832 415.38l-6.106 3.676c-3.597 2.166-8.262.992-10.416-2.588l-58.211-96.696a7.58 7.58 0 012.588-10.416l6.106-3.676a7.582 7.582 0 00-2.597 10.422l58.211 96.696c2.154 3.578 6.818 4.753 10.425 2.582zM625.54 215.358l58.211 96.696c2.155 3.579 1.01 8.251-2.588 10.416l-6.098 3.671a7.593 7.593 0 002.588-10.416l-58.211-96.696a7.58 7.58 0 00-10.416-2.588l6.098-3.671a7.58 7.58 0 0110.416 2.588z" opacity=".15"/></g><g><path fill="#556c7b" d="M571.032 193.372V606.62c0 15.536-12.592 28.127-28.119 28.127H273.15c-15.528 0-28.119-12.592-28.119-28.127V193.372c0-15.528 12.592-28.119 28.119-28.119h269.763c15.528 0 28.119 12.592 28.119 28.119z"/><path fill="#dbe8f1" d="M558.13 193.374v413.242c0 8.399-6.826 15.224-15.215 15.224h-269.77c-8.381 0-15.206-6.825-15.206-15.224V193.374c0-8.39 6.825-15.215 15.206-15.215h269.77c8.389 0 15.215 6.826 15.215 15.215z"/><path fill="#556c7b" d="M460.653 178.159v12.382c0 5.62-4.559 10.179-10.18 10.179h-84.878a10.176 10.176 0 0 1-10.18-10.179v-12.382h105.238z"/><circle cx="387.116" cy="189.333" r="6.006" fill="#394750"/><circle cx="408.034" cy="189.333" r="6.006" fill="#394750"/><circle cx="428.952" cy="189.333" r="6.006" fill="#394750"/><path fill="#89c05c" d="M498.721 400.001c0 50.082-40.603 90.696-90.685 90.696-50.093 0-90.695-40.614-90.695-90.696 0-50.093 40.603-90.696 90.695-90.696 22.023 0 42.209 7.852 57.924 20.921l-42.304 52.58-12.093-13.552a17.745 17.745 0 0 0-13.237-5.941 17.73 17.73 0 0 0-13.625 6.382l-.084.105-.252.367c-6.014 7.296-5.112 18.276 2.037 24.553l28.132 24.574.535.199c.158.063 3.758 1.375 8.44 1.375 5.333 0 12.733-1.68 17.741-9.689 3.454-5.501 13.856-22.212 24.426-39.186 5.533-8.881 11.106-17.824 15.746-25.277 10.885 14.96 17.299 33.372 17.299 53.285z"/><circle cx="408.031" cy="400" r="79.471" fill="#dbe8f1"/><path fill="#89c05c" d="M469.874 400.001c0 34.158-27.691 61.839-61.839 61.839-34.158 0-61.849-27.681-61.849-61.839s27.691-61.839 61.849-61.839c16.859 0 32.132 6.739 43.28 17.667a61.867 61.867 0 0 1 11.662 15.788c4.41 8.492 6.897 18.15 6.897 28.384z"/><path fill="#689c41" d="M462.978 371.617c-14.685 21.057-30.925 43.941-34.756 50.051-2.929 4.671-6.813 6.834-10.518 7.705-5.637 1.323-11.558-.367-15.914-4.178l-23.682-20.69c-5.941-5.217-6.665-14.213-1.606-20.27l.262-.357c5.721-6.855 16.145-7.033 22.086-.367l14.57 16.323 37.895-44.004a61.848 61.848 0 0 1 11.663 15.787z"/><path fill="#fff" d="M485.704 333.89c-11.263 18.034-51.17 73.503-57.479 83.559-2.929 4.671-6.813 6.834-10.518 7.705-5.637 1.323-11.558-.367-15.914-4.178l-23.682-20.69c-5.942-5.217-6.666-14.213-1.606-20.27l.262-.357c5.721-6.855 16.145-7.033 22.086-.367l14.57 16.323 60.397-70.144c1.427-1.753 3.506-2.74 5.689-2.74 1.018 0 2.078.22 3.065.693 3.97 1.827 5.429 6.75 3.13 10.466z"/><g><path fill="#f15f5b" d="M479.616 555.821a23.798 23.798 0 0 1-7 16.891 23.8 23.8 0 0 1-16.891 7h-95.383c-13.195 0-23.897-10.696-23.897-23.891a23.798 23.798 0 0 1 7-16.891 23.816 23.816 0 0 1 16.898-7h95.383c13.194 0 23.89 10.696 23.89 23.891z"/><path fill="#fff" d="M380.499 542.122c5.97 0 9.69 2.597 9.69 6.781 0 2.947-1.783 5.232-4.689 5.97 3.487.656 5.658 3.294 5.658 6.857 0 4.651-3.916 7.519-10.233 7.519h-12.902v-27.127h12.476zm-6.355 10.927h6.046c2.288 0 3.72-1.123 3.72-3.02 0-1.862-1.433-2.909-3.72-2.909h-6.046v5.929zm0 11.202h6.046c2.906 0 4.651-1.202 4.651-3.294 0-1.978-1.745-3.177-4.651-3.177h-6.046v6.471zM419.617 557.896c0 7.169-4.689 11.625-12.17 11.625-7.516 0-12.322-4.455-12.322-11.625v-15.774h6.121v15.774c0 3.913 2.559 6.276 6.2 6.276 3.645 0 6.046-2.363 6.046-6.276v-15.774h6.125v15.774zM438.155 569.249h-6.121v-8.602l-10.037-18.525h6.162l6.936 12.167 6.781-12.167h6.162l-9.883 18.368v8.759z"/></g><g><path fill="#bedaeb" d="M272.407 231.756h98.841v15.261h-98.841zM272.407 256.489h98.841v15.261h-98.841zM272.407 281.222h98.841v15.261h-98.841z"/><g><path fill="#bedaeb" d="M444.814 231.756h98.841v15.261h-98.841zM444.814 256.489h98.841v15.261h-98.841zM444.814 281.222h98.841v15.261h-98.841z"/></g></g></g><g><path fill="#fbd493" d="M116.177 464.402c-2.15.609-3.201-.369-3.922-1.527 0 0-2.471 1.786-4.325-.262 0 0-1.306 1.23-2.977-.647-1.681-1.887.824-2.993.553-5.854-.281-2.87.248-.093-.701-5.222-.94-5.12-.384-9.334-.384-9.334l14.425 3.057s2.48 21.422-1.344 20.796c-3.827-.626.835-1.607-1.325-1.007z"/><path fill="#13375b" d="m158.112 620.839 36.615-148.709 28.291 148.709h18.763l-12.246-194.304-46.884 16.223-27.505 10.046-15.672 168.035z"/><path fill="#bedaeb" d="m221.094 431.264-27.942 9.275s-11.994-62.807-21.697-93.602c-2.065-6.504-1.191-11.99-3.212-14.699l5.336-1.317 13.71.472s1.178.508 3.081 1.829c8.691 6.051 32.725 29.078 30.724 98.042z"/><path fill="#fbd493" d="M323.052 289.724c1.441 1.708.983 3.068.225 4.203 0 0 2.645 1.516 1.543 4.049 0 0 1.659.683.637 2.98-1.027 2.309-3.067.483-5.562 1.908-2.499 1.438-.186-.188-4.469 2.79-4.278 2.966-8.347 4.195-8.347 4.195l-3.157-14.404s30.667-17.126 31.672-13.383c1.006 3.744-13.978 5.941-12.542 7.662z"/><path fill="#4fa9dd" d="M220.006 348.281s18.599 93.726 19.514 108.432l-17.58-1.65s-7.522-110.678-34.648-123.67c0 0 115.353-36.905 116.63-35.947s3.157 14.404 3.157 14.404l-87.073 38.431z"/><path fill="#fbd493" d="M182.206 344.885c-.279.087-.563.186-.875.289-2.414.814-4.69 1.257-6.926 1.338-3.407.132-6.721-.594-10.219-2.174l-.354-.147-.32-.205c-1.443-.875-4.761-2.908-5.219-7.287l7.725-3.918 2.225-.544 5.336-1.317 13.71.472s1.178.508 3.081 1.829c.53 4.042-1.347 9.163-8.164 11.664z"/><path fill="#fbd493" d="m160.45 313.246 7.65 3.941 10.405 5.369a9.8 9.8 0 0 0-.292 3.494c.176 2.615 1.319 4.816 4.497 5.508 1.291.071 4.113 5.519-3.262 7.79-4.972 1.683-8.726 1.228-12.75-.586-2.016-1.232-2.735-2.04-2.156-4.496 1.694-6.963-1.157-14.942-4.092-21.02z"/><path fill="#eeaf56" d="m175.978 321.208-6.862-4.139c.017.199.033.412.048.638.122.922.315 1.834.579 2.727.906 3.05 5.184 5.716 8.528 6.25l-.03-.675a12.265 12.265 0 0 1 .209-3.317.583.583 0 0 1 .082-.177l-2.554-1.307z"/><path fill="#693619" d="M177.513 304.977c1.279-10.117-1.415-14.604 1.142-20.678 1.896-1.826 7.368.904 7.317 8.957-.051 8.053-8.459 11.721-8.459 11.721z"/><path fill="#fbd493" d="M156.48 301.933c3.097 10.072 4.472 16.093 10.872 19.946 9.676 5.834 21.069-2.162 20.985-13.001-.069-9.751-5.201-24.543-16.154-25.973-8.01-.996-15.312 4.689-16.308 12.7a14.622 14.622 0 0 0 .605 6.328z"/><path fill="#693619" d="m158.51 311.134 9.225.248-5.181-7.919 3.477-4.103 2.427-9.963s-12.833.829-16.459 1.628c-1.269.28-4.314 5.12-4.437 6.734-.35 4.566 2.235 8.787 6.168 11.135a26.474 26.474 0 0 0 4.78 2.24z"/><path fill="#693619" d="M151.641 279.72c2.09-2.15 5.734-1.736 8.729-1.892 2.995-.156 6.014-.095 8.968-.614 2.56-.449 5.177-1.427 6.789-3.465 1.613-2.038 1.813-5.338-.121-7.074 3.559.603 6.754 3.046 8.269 6.322 1.515 3.276 1.306 7.293-.539 10.394-1.706 2.867-4.635 4.841-7.755 6.022-3.12 1.18-6.456 1.646-9.76 2.104-4.391.608-10.337 2.631-14.719 2.112-4.666-.553-6.255-7.331.139-13.909z"/><path fill="#fbd493" d="M154.226 310.808a9.63 9.63 0 0 0 5.074 4.578c2.847 1.063 4.553-2.032 3.742-4.914-.739-2.571-3.428-5.68-6.277-5.502-2.849.179-3.865 3.222-2.539 5.838z"/><path fill="#4fa9dd" d="M195.299 455.436c-15.736 40.856-45.281 20.991-45.281 20.991 13.295-20.346-1.65-101.308-1.65-101.308l16.644-44.089c13.655 14.017 30.287 124.406 30.287 124.406z"/><path fill="#4fa9dd" d="m119.84 443.917-17.085 6.548s1.536-7.798 1.202-43.64c-.342-35.858 61.056-75.795 61.056-75.795l-16.644 44.089s-10.937 14.143-21.077 23.627c-10.144 9.497-7.452 45.171-7.452 45.171z"/><path fill="#693619" d="M258.4 634.242v.505h-28.368c-4.005 0-7.254-3.248-7.254-7.243v-7.934h20.95c8.099 0 14.672 6.562 14.672 14.672zM175.096 634.242v.505h-28.368c-4.005 0-7.254-3.248-7.254-7.243v-7.934h20.95c8.098 0 14.672 6.562 14.672 14.672z"/></g><g><path fill="#eeb422" d="M653.284 570.606c0 35.426-28.718 64.141-64.141 64.141-1.816 0-3.618-.076-5.394-.226a63.698 63.698 0 0 1-22.875-6.325 64.04 64.04 0 0 1-12.399-7.986 64.503 64.503 0 0 1-8.104-7.944C530.786 601.06 525 586.509 525 570.605c0-35.423 28.718-64.141 64.144-64.141 1.816 0 3.615.076 5.392.223a63.863 63.863 0 0 1 24.897 7.365 64.44 64.44 0 0 1 18.482 14.892c9.582 11.207 15.369 25.761 15.369 41.662z"/><path fill="#f3c258" d="M658.023 570.606c0 35.426-28.718 64.141-64.141 64.141-1.816 0-3.618-.076-5.394-.226a63.698 63.698 0 0 1-22.875-6.325 64.04 64.04 0 0 1-12.399-7.986 64.503 64.503 0 0 1-8.104-7.944c-9.585-11.206-15.371-25.757-15.371-41.661 0-35.423 28.718-64.141 64.144-64.141 1.816 0 3.615.076 5.392.223a63.863 63.863 0 0 1 24.897 7.365 64.44 64.44 0 0 1 18.482 14.892c9.582 11.207 15.369 25.761 15.369 41.662z"/><path fill="#fbbe15" d="M646.3 569.923c0 29.328-23.776 53.104-53.104 53.104s-53.104-23.776-53.104-53.104c0-29.331 23.776-53.107 53.104-53.107 29.329.001 53.104 23.776 53.104 53.107z"/><path fill="#e6a922" d="M646.3 569.924c0 29.327-23.774 53.104-53.104 53.104-15.56 0-29.558-6.692-39.273-17.356 9.435 8.592 21.981 13.832 35.748 13.832 29.327 0 53.104-23.777 53.104-53.104 0-13.769-5.239-26.315-13.832-35.75 10.666 9.716 17.357 23.713 17.357 39.274z"/><g opacity=".15"><path fill="#fff" d="M609.77 508.629l-4.938 9.627-11.891 23.18-16.649 32.454-18.284 35.643-.271.527-5.208 10.152a64.503 64.503 0 01-8.104-7.944l5.468-10.659 25.582-49.864 3.265-6.367 14.649-28.551 5.2-10.138a63.83 63.83 0 0111.181 1.94zM641.968 528.946l-5.631 10.975v.003l-.626 1.215-18.806 36.661-8.863 17.277-12.314 24.003-2.019 3.934-5.905 11.508a63.698 63.698 0 01-22.875-6.325l5.186-10.107v-.003l.88-1.712 10.425-20.323 7.038-13.719 3.263-6.362 5.521-10.761 3.604-7.024 5.516-10.752 12.207-23.797 4.918-9.585a64.496 64.496 0 0118.481 14.894z"/></g><g><path fill="#dc962f" d="M609.352 584.355c0 8.434-5.839 15.508-13.645 17.412v5.546h-8.371v-5.546c-7.827-1.883-13.666-8.978-13.666-17.412h8.371c0 5.274 4.248 9.543 9.48 9.543 5.211 0 9.459-4.269 9.459-9.543 0-5.274-4.248-9.564-9.459-9.564-9.836 0-17.851-8.036-17.851-17.935 0-8.434 5.839-15.528 13.666-17.412v-5.546h8.371v5.546c7.806 1.904 13.645 8.978 13.645 17.412h-8.371c0-5.253-4.248-9.543-9.459-9.543-5.232 0-9.48 4.29-9.48 9.543 0 5.274 4.248 9.564 9.48 9.564 9.814 0 17.83 8.037 17.83 17.935z"/></g><g><path fill="#eeb422" d="M610.292 570.606c0 35.426-28.718 64.141-64.141 64.141-1.816 0-3.618-.076-5.394-.226a63.698 63.698 0 0 1-22.875-6.325 64.04 64.04 0 0 1-12.399-7.986 64.503 64.503 0 0 1-8.104-7.944c-9.585-11.206-15.371-25.757-15.371-41.661 0-35.423 28.718-64.141 64.144-64.141 1.816 0 3.615.076 5.392.223a63.863 63.863 0 0 1 24.897 7.365 64.44 64.44 0 0 1 18.482 14.892c9.583 11.207 15.369 25.761 15.369 41.662z"/><path fill="#f3c258" d="M615.031 570.606c0 35.426-28.718 64.141-64.141 64.141-1.816 0-3.618-.076-5.394-.226a63.698 63.698 0 0 1-22.875-6.325 64.04 64.04 0 0 1-12.399-7.986 64.503 64.503 0 0 1-8.104-7.944c-9.585-11.206-15.371-25.757-15.371-41.661 0-35.423 28.718-64.141 64.144-64.141 1.816 0 3.615.076 5.392.223a63.863 63.863 0 0 1 24.897 7.365 64.44 64.44 0 0 1 18.482 14.892c9.582 11.207 15.369 25.761 15.369 41.662z"/><path fill="#fbbe15" d="M603.308 569.923c0 29.328-23.776 53.104-53.104 53.104S497.1 599.251 497.1 569.923c0-29.331 23.776-53.107 53.104-53.107 29.329.001 53.104 23.776 53.104 53.107z"/><path fill="#e6a922" d="M603.308 569.924c0 29.327-23.774 53.104-53.104 53.104-15.56 0-29.558-6.692-39.273-17.356 9.435 8.592 21.981 13.832 35.748 13.832 29.327 0 53.104-23.777 53.104-53.104 0-13.769-5.239-26.315-13.832-35.75 10.666 9.716 17.357 23.713 17.357 39.274z"/><g opacity=".15"><path fill="#fff" d="M566.778 508.629l-4.938 9.627-11.891 23.18L533.3 573.89l-18.284 35.643-.271.527-5.208 10.152a64.503 64.503 0 01-8.104-7.944l5.468-10.659 25.582-49.864 3.265-6.367 14.649-28.551 5.2-10.138a63.83 63.83 0 0111.181 1.94zM598.976 528.946l-5.631 10.975v.003l-.626 1.215-18.806 36.661-8.863 17.277-12.314 24.003-2.019 3.934-5.905 11.508a63.698 63.698 0 01-22.875-6.325l5.186-10.107v-.003l.88-1.712 10.425-20.323 7.038-13.719 3.263-6.362 5.521-10.761 3.604-7.024 5.516-10.752 12.207-23.797 4.918-9.585a64.496 64.496 0 0118.481 14.894z"/></g><g><path fill="#dc962f" d="M566.36 584.355c0 8.434-5.839 15.508-13.645 17.412v5.546h-8.371v-5.546c-7.827-1.883-13.666-8.978-13.666-17.412h8.371c0 5.274 4.248 9.543 9.48 9.543 5.211 0 9.459-4.269 9.459-9.543 0-5.274-4.248-9.564-9.459-9.564-9.836 0-17.851-8.036-17.851-17.935 0-8.434 5.839-15.528 13.666-17.412v-5.546h8.371v5.546c7.806 1.904 13.645 8.978 13.645 17.412h-8.371c0-5.253-4.248-9.543-9.459-9.543-5.232 0-9.48 4.29-9.48 9.543 0 5.274 4.248 9.564 9.48 9.564 9.815 0 17.83 8.037 17.83 17.935z"/></g></g></g></svg>